<svg width="1440" height="159" fill="none" xmlns="http://www.w3.org/2000/svg">
<path fill="#fff" d="M0 0h1440v159H0z"/><path d="M162.296 47.216l254.382-.232M450.296 47.216l254.382-.232M743.296 47.216l254.382-.232M1032.3 47.216l254.38-.232" stroke="#4D5858" stroke-opacity=".5" stroke-width="5"/><path d="M124.109 84.938v11.238c0 1.867-.586 3.343-1.757 4.429-1.164 1.086-2.758 1.629-4.782 1.629-1.992 0-3.574-.527-4.746-1.582-1.172-1.054-1.769-2.504-1.793-4.347V84.937h3.516V96.2c0 1.117.265 1.934.797 2.45.539.507 1.281.761 2.226.761 1.977 0 2.981-1.039 3.012-3.117V84.937h3.527zm14.075 10.84c0 1.953-.446 3.519-1.336 4.699-.883 1.171-2.078 1.757-3.586 1.757-1.282 0-2.317-.445-3.106-1.336v5.977h-3.386V89.32h3.14l.117 1.243c.821-.985 1.891-1.477 3.211-1.477 1.563 0 2.778.578 3.645 1.734.867 1.157 1.301 2.75 1.301 4.782v.175zm-3.387-.247c0-1.18-.211-2.09-.633-2.73-.414-.64-1.019-.961-1.816-.961-1.063 0-1.793.406-2.192 1.219v5.191c.414.836 1.153 1.254 2.215 1.254 1.617 0 2.426-1.324 2.426-3.973zm9.07 6.469h-3.398V84h3.398v18zm2.274-6.457c0-1.258.242-2.379.726-3.363.485-.985 1.18-1.746 2.086-2.286.914-.538 1.973-.808 3.176-.808 1.711 0 3.105.523 4.183 1.57 1.086 1.047 1.692 2.469 1.817 4.266l.023.867c0 1.945-.543 3.508-1.629 4.688-1.085 1.171-2.543 1.757-4.371 1.757-1.828 0-3.289-.586-4.382-1.757-1.086-1.172-1.629-2.766-1.629-4.782v-.152zm3.386.246c0 1.203.227 2.125.68 2.766.453.632 1.102.949 1.945.949.821 0 1.461-.313 1.922-.938.461-.632.692-1.64.692-3.023 0-1.18-.231-2.094-.692-2.742-.461-.649-1.109-.973-1.945-.973-.828 0-1.469.324-1.922.973-.453.64-.68 1.636-.68 2.988zM167.586 102c-.156-.305-.27-.684-.34-1.137-.82.914-1.887 1.371-3.199 1.371-1.242 0-2.274-.359-3.094-1.078-.812-.718-1.219-1.625-1.219-2.719 0-1.343.496-2.374 1.489-3.093 1-.719 2.441-1.082 4.324-1.09h1.558v-.727c0-.586-.152-1.054-.457-1.406-.296-.352-.769-.527-1.418-.527-.57 0-1.019.137-1.347.41-.321.273-.481.648-.481 1.125h-3.386c0-.735.226-1.414.679-2.04.453-.624 1.094-1.112 1.922-1.464.828-.36 1.758-.54 2.789-.54 1.563 0 2.801.396 3.715 1.184.922.782 1.383 1.883 1.383 3.305v5.496c.008 1.203.176 2.114.504 2.731V102h-3.422zm-2.801-2.356c.5 0 .961-.109 1.383-.328.422-.226.734-.527.937-.902v-2.18h-1.265c-1.695 0-2.598.586-2.707 1.758l-.012.2c0 .421.149.769.445 1.042.297.274.704.41 1.219.41zm7.793-4.078c0-1.976.442-3.55 1.324-4.722.891-1.172 2.106-1.758 3.645-1.758 1.234 0 2.254.46 3.058 1.383V84h3.399v18h-3.059l-.164-1.348c-.843 1.055-1.929 1.582-3.258 1.582-1.492 0-2.691-.586-3.597-1.757-.899-1.18-1.348-2.817-1.348-4.91zm3.387.246c0 1.188.207 2.098.621 2.731.414.633 1.016.95 1.805.95 1.047 0 1.785-.442 2.214-1.325v-5.004c-.421-.883-1.152-1.324-2.191-1.324-1.633 0-2.449 1.324-2.449 3.972z" fill="#000"/>
<circle cx="147" cy="47" r="23" fill="#4D5858"/><path d="M149.496 55h-3.387V41.945l-4.043 1.254v-2.754l7.067-2.53h.363V55z" fill="#fff"/><path d="M394.043 95.988V102h-3.516V84.937h6.657c1.281 0 2.406.235 3.375.704.976.468 1.726 1.136 2.25 2.003.523.86.785 1.84.785 2.942 0 1.672-.574 2.992-1.723 3.96-1.141.962-2.723 1.442-4.746 1.442h-3.082zm0-2.847h3.141c.929 0 1.636-.22 2.121-.657.492-.437.738-1.062.738-1.875 0-.836-.246-1.511-.738-2.027-.493-.516-1.172-.781-2.039-.797h-3.223v5.356zm18.879-.645a9.2 9.2 0 00-1.219-.094c-1.281 0-2.121.434-2.519 1.301V102h-3.387V89.32h3.199l.094 1.512c.68-1.164 1.621-1.746 2.824-1.746.375 0 .727.05 1.055.152l-.047 3.258zm7.242 9.738c-1.859 0-3.375-.57-4.547-1.711-1.164-1.14-1.746-2.66-1.746-4.558v-.328c0-1.274.246-2.41.738-3.41.493-1.008 1.188-1.782 2.086-2.32.907-.548 1.938-.821 3.094-.821 1.734 0 3.098.547 4.09 1.64 1 1.094 1.5 2.645 1.5 4.653v1.383h-8.074c.109.828.437 1.492.984 1.992.555.5 1.254.75 2.098.75 1.304 0 2.324-.473 3.058-1.418l1.664 1.863c-.507.719-1.195 1.281-2.062 1.688-.867.398-1.828.597-2.883.597zm-.387-10.406c-.672 0-1.218.227-1.64.68-.414.453-.68 1.101-.797 1.945h4.711v-.27c-.016-.75-.219-1.328-.61-1.734-.39-.414-.945-.62-1.664-.62zm12.118 6.035l2.355-8.543h3.539L433.512 102h-3.235L426 89.32h3.539l2.356 8.543zM442.863 102h-3.398V89.32h3.398V102zm-3.597-15.96c0-.509.168-.927.504-1.255.343-.328.808-.492 1.394-.492.578 0 1.039.164 1.383.492.344.328.515.746.515 1.254 0 .516-.175.938-.527 1.266-.344.328-.801.492-1.371.492s-1.031-.164-1.383-.492c-.343-.328-.515-.75-.515-1.266zm12.234 16.194c-1.859 0-3.375-.57-4.547-1.711-1.164-1.14-1.746-2.66-1.746-4.558v-.328c0-1.274.246-2.41.738-3.41.493-1.008 1.188-1.782 2.086-2.32.907-.548 1.938-.821 3.094-.821 1.734 0 3.098.547 4.09 1.64 1 1.094 1.5 2.645 1.5 4.653v1.383h-8.074c.109.828.437 1.492.984 1.992.555.5 1.254.75 2.098.75 1.304 0 2.324-.473 3.058-1.418l1.664 1.863c-.507.719-1.195 1.281-2.062 1.688-.867.398-1.828.597-2.883.597zm-.387-10.406c-.672 0-1.218.227-1.64.68-.414.453-.68 1.101-.797 1.945h4.711v-.27c-.016-.75-.219-1.328-.61-1.734-.39-.414-.945-.62-1.664-.62zm18.563 5.566l1.664-8.074h3.269L471.375 102h-2.836l-2.402-7.98-2.403 7.98h-2.824l-3.234-12.68h3.269l1.653 8.063 2.32-8.063h2.449l2.309 8.075z" fill="#000"/><circle cx="432" cy="47" r="23" fill="#4D5858"/><path d="M437.965 55H426.27v-2.32l5.519-5.883c.758-.828 1.316-1.55 1.676-2.168.367-.617.551-1.203.551-1.758 0-.758-.192-1.352-.575-1.781-.382-.438-.929-.656-1.64-.656-.766 0-1.371.265-1.817.797-.437.523-.656 1.214-.656 2.074h-3.398c0-1.04.246-1.989.738-2.848a5.247 5.247 0 012.109-2.016c.907-.492 1.934-.738 3.082-.738 1.758 0 3.121.422 4.09 1.266.977.843 1.465 2.035 1.465 3.574 0 .844-.219 1.703-.656 2.578-.438.875-1.188 1.895-2.25 3.059l-3.879 4.09h7.336V55z" fill="#fff"/><path d="M676.469 102V84.937h5.25c1.5 0 2.84.34 4.019 1.02 1.188.672 2.114 1.633 2.778 2.883.664 1.242.996 2.656.996 4.242v.785c0 1.586-.328 2.996-.985 4.23a6.967 6.967 0 01-2.754 2.872c-1.187.679-2.527 1.023-4.019 1.031h-5.285zm3.515-14.215v11.39h1.7c1.375 0 2.425-.448 3.152-1.347.726-.898 1.098-2.184 1.113-3.855v-.903c0-1.734-.359-3.047-1.078-3.937-.719-.899-1.769-1.348-3.152-1.348h-1.735zm17.707 14.449c-1.859 0-3.375-.57-4.546-1.711-1.165-1.14-1.747-2.66-1.747-4.558v-.328c0-1.274.247-2.41.739-3.41.492-1.008 1.187-1.782 2.086-2.32.906-.548 1.937-.821 3.093-.821 1.735 0 3.098.547 4.09 1.64 1 1.094 1.5 2.645 1.5 4.653v1.383h-8.074c.109.828.438 1.492.984 1.992.555.5 1.254.75 2.098.75 1.305 0 2.324-.473 3.059-1.418l1.664 1.863c-.508.719-1.196 1.281-2.063 1.688-.867.398-1.828.597-2.883.597zm-.386-10.406c-.672 0-1.219.227-1.641.68-.414.453-.68 1.101-.797 1.945h4.711v-.27c-.016-.75-.219-1.328-.609-1.734-.391-.414-.946-.62-1.664-.62zm14.402 6.668c0-.414-.207-.738-.621-.973-.406-.242-1.063-.457-1.969-.644-3.015-.633-4.523-1.914-4.523-3.844 0-1.125.465-2.062 1.394-2.812.938-.758 2.16-1.137 3.668-1.137 1.61 0 2.895.379 3.856 1.137.968.758 1.453 1.742 1.453 2.953h-3.387c0-.485-.156-.883-.469-1.195-.312-.32-.8-.481-1.464-.481-.571 0-1.012.129-1.325.387a1.222 1.222 0 00-.468.984c0 .375.175.68.527.914.359.227.961.426 1.805.598.843.164 1.554.351 2.132.562 1.789.657 2.684 1.793 2.684 3.41 0 1.157-.496 2.094-1.488 2.813-.992.711-2.274 1.066-3.844 1.066-1.063 0-2.008-.187-2.836-.562-.82-.383-1.465-.902-1.934-1.559-.468-.664-.703-1.379-.703-2.144h3.211c.032.601.254 1.062.668 1.383.414.32.969.48 1.664.48.649 0 1.137-.121 1.465-.363.336-.25.504-.575.504-.973zm10.758 1.008c.625 0 1.133-.172 1.523-.516.391-.344.594-.8.61-1.37h3.175a4.366 4.366 0 01-.703 2.366 4.683 4.683 0 01-1.898 1.664c-.797.391-1.68.586-2.649.586-1.812 0-3.242-.574-4.289-1.722-1.046-1.156-1.57-2.75-1.57-4.781v-.223c0-1.953.52-3.512 1.559-4.676 1.039-1.164 2.465-1.746 4.277-1.746 1.586 0 2.855.453 3.809 1.36.961.898 1.449 2.097 1.464 3.597h-3.175c-.016-.656-.219-1.188-.61-1.594-.39-.414-.906-.62-1.547-.62-.789 0-1.386.288-1.793.866-.398.57-.597 1.5-.597 2.79v.35c0 1.306.199 2.243.597 2.813.399.57 1.004.856 1.817.856zm14.367-7.008a9.2 9.2 0 00-1.219-.094c-1.281 0-2.121.434-2.519 1.301V102h-3.387V89.32h3.199l.094 1.512c.68-1.164 1.621-1.746 2.824-1.746.375 0 .727.05 1.055.152l-.047 3.258zm5.215 9.504h-3.399V89.32h3.399V102zm-3.598-15.96c0-.509.168-.927.504-1.255.344-.328.809-.492 1.395-.492.578 0 1.039.164 1.382.492.344.328.516.746.516 1.254 0 .516-.176.938-.527 1.266-.344.328-.801.492-1.371.492-.571 0-1.032-.164-1.383-.492-.344-.328-.516-.75-.516-1.266zm17.824 9.737c0 2.032-.433 3.617-1.3 4.758-.868 1.133-2.078 1.699-3.633 1.699-1.375 0-2.473-.527-3.293-1.582l-.152 1.348h-3.047V84h3.386v6.457c.782-.914 1.809-1.371 3.082-1.371 1.547 0 2.758.57 3.633 1.71.883 1.134 1.324 2.731 1.324 4.794v.187zm-3.386-.246c0-1.281-.203-2.215-.61-2.8-.406-.594-1.011-.891-1.816-.891-1.078 0-1.82.441-2.227 1.324v5.004c.414.89 1.164 1.336 2.25 1.336 1.094 0 1.813-.54 2.157-1.617.164-.516.246-1.301.246-2.356zm11.32 6.703c-1.859 0-3.375-.57-4.547-1.711-1.164-1.14-1.746-2.66-1.746-4.558v-.328c0-1.274.246-2.41.738-3.41.493-1.008 1.188-1.782 2.086-2.32.907-.548 1.938-.821 3.094-.821 1.734 0 3.098.547 4.09 1.64 1 1.094 1.5 2.645 1.5 4.653v1.383h-8.074c.109.828.437 1.492.984 1.992.555.5 1.254.75 2.098.75 1.304 0 2.324-.473 3.058-1.418l1.664 1.863c-.507.719-1.195 1.281-2.062 1.688-.867.398-1.828.597-2.883.597zm-.387-10.406c-.672 0-1.218.227-1.64.68-.414.453-.68 1.101-.797 1.945h4.711v-.27c-.016-.75-.219-1.328-.61-1.734-.39-.414-.945-.62-1.664-.62zm-64.23 31.738c0-1.976.441-3.55 1.324-4.722.891-1.172 2.106-1.758 3.645-1.758 1.234 0 2.253.461 3.058 1.383V112h3.399v18h-3.059l-.164-1.348c-.844 1.055-1.93 1.582-3.258 1.582-1.492 0-2.691-.586-3.597-1.757-.899-1.18-1.348-2.817-1.348-4.911zm3.387.246c0 1.188.207 2.098.621 2.731.414.633 1.015.949 1.804.949 1.047 0 1.786-.441 2.215-1.324v-5.004c-.422-.883-1.152-1.324-2.191-1.324-1.633 0-2.449 1.324-2.449 3.972zM720.988 130c-.156-.305-.269-.684-.34-1.137-.82.914-1.886 1.371-3.199 1.371-1.242 0-2.273-.359-3.094-1.078-.812-.718-1.218-1.625-1.218-2.718 0-1.344.496-2.376 1.488-3.094 1-.719 2.441-1.082 4.324-1.09h1.559v-.727c0-.586-.153-1.054-.457-1.406-.297-.351-.77-.527-1.418-.527-.571 0-1.02.136-1.348.41-.32.273-.48.648-.48 1.125h-3.387c0-.734.227-1.414.68-2.039.453-.625 1.093-1.113 1.922-1.465.828-.359 1.757-.539 2.789-.539 1.562 0 2.8.394 3.714 1.184.922.781 1.383 1.882 1.383 3.304v5.496c.008 1.203.176 2.114.504 2.731V130h-3.422zm-2.8-2.355c.5 0 .96-.11 1.382-.329.422-.226.735-.527.938-.902v-2.18h-1.266c-1.695 0-2.597.586-2.707 1.758l-.012.199c0 .422.149.77.446 1.043.297.274.703.411 1.219.411zm12.374-13.442v3.117h2.168v2.485h-2.168v6.328c0 .469.09.805.27 1.008.18.203.523.304 1.031.304.375 0 .707-.027.996-.082v2.567a6.97 6.97 0 01-2.05.304c-2.375 0-3.586-1.199-3.633-3.597v-6.832h-1.852v-2.485h1.852v-3.117h3.386zM741.965 130c-.156-.305-.27-.684-.34-1.137-.82.914-1.887 1.371-3.199 1.371-1.242 0-2.274-.359-3.094-1.078-.812-.718-1.219-1.625-1.219-2.718 0-1.344.496-2.376 1.489-3.094 1-.719 2.441-1.082 4.324-1.09h1.558v-.727c0-.586-.152-1.054-.457-1.406-.297-.351-.769-.527-1.418-.527-.57 0-1.019.136-1.347.41-.321.273-.481.648-.481 1.125h-3.386c0-.734.226-1.414.679-2.039.453-.625 1.094-1.113 1.922-1.465.828-.359 1.758-.539 2.789-.539 1.563 0 2.801.394 3.715 1.184.922.781 1.383 1.882 1.383 3.304v5.496c.008 1.203.176 2.114.504 2.731V130h-3.422zm-2.801-2.355c.5 0 .961-.11 1.383-.329.422-.226.734-.527.937-.902v-2.18h-1.265c-1.696 0-2.598.586-2.707 1.758l-.012.199c0 .422.148.77.445 1.043.297.274.703.411 1.219.411z" fill="#000"/><circle cx="723" cy="47" r="23" fill="#4D5858"/><path d="M720.715 44.969h1.805c.859 0 1.496-.215 1.91-.645.414-.43.621-1 .621-1.71 0-.688-.207-1.223-.621-1.606-.407-.383-.969-.574-1.688-.574-.648 0-1.191.18-1.629.539a1.69 1.69 0 00-.656 1.383h-3.387c0-.891.239-1.688.715-2.391.485-.711 1.156-1.266 2.016-1.664.867-.399 1.82-.598 2.859-.598 1.805 0 3.219.434 4.242 1.3 1.024.86 1.536 2.048 1.536 3.563 0 .782-.239 1.5-.715 2.157a4.65 4.65 0 01-1.875 1.511c.961.344 1.675.86 2.144 1.547.477.688.715 1.5.715 2.438 0 1.515-.555 2.73-1.664 3.644-1.102.914-2.563 1.371-4.383 1.371-1.703 0-3.098-.449-4.183-1.347-1.079-.899-1.618-2.086-1.618-3.563h3.387c0 .64.238 1.164.715 1.57.484.407 1.078.61 1.781.61.805 0 1.434-.211 1.887-.633.461-.43.691-.996.691-1.7 0-1.702-.937-2.554-2.812-2.554h-1.793V44.97z" fill="#fff"/><path d="M964.523 102V84.937h5.25c1.5 0 2.84.34 4.02 1.02 1.187.672 2.113 1.633 2.777 2.883.664 1.242.996 2.656.996 4.242v.785c0 1.586-.328 2.996-.984 4.23a6.967 6.967 0 01-2.754 2.872c-1.187.679-2.527 1.023-4.019 1.031h-5.286zm3.516-14.215v11.39h1.699c1.375 0 2.426-.448 3.153-1.347.726-.898 1.097-2.184 1.113-3.855v-.903c0-1.734-.359-3.047-1.078-3.937-.719-.899-1.77-1.348-3.153-1.348h-1.734zm17.707 14.449c-1.859 0-3.375-.57-4.547-1.711-1.164-1.14-1.746-2.66-1.746-4.558v-.328c0-1.274.246-2.41.738-3.41.493-1.008 1.188-1.782 2.086-2.32.907-.548 1.938-.821 3.094-.821 1.734 0 3.098.547 4.09 1.64 1 1.094 1.5 2.645 1.5 4.653v1.383h-8.074c.109.828.437 1.492.984 1.992.555.5 1.254.75 2.098.75 1.304 0 2.324-.473 3.058-1.418l1.664 1.863c-.507.719-1.195 1.281-2.062 1.688-.867.398-1.828.597-2.883.597zm-.387-10.406c-.671 0-1.218.227-1.64.68-.414.453-.68 1.101-.797 1.945h4.711v-.27c-.016-.75-.219-1.328-.61-1.734-.39-.414-.945-.62-1.664-.62zm14.403 6.668c0-.414-.207-.738-.621-.973-.407-.242-1.063-.457-1.969-.644-3.016-.633-4.524-1.914-4.524-3.844 0-1.125.465-2.062 1.395-2.812.937-.758 2.16-1.137 3.668-1.137 1.609 0 2.899.379 3.859 1.137.97.758 1.45 1.742 1.45 2.953h-3.387c0-.485-.156-.883-.469-1.195-.312-.32-.801-.481-1.465-.481-.57 0-1.011.129-1.324.387a1.22 1.22 0 00-.469.984c0 .375.176.68.528.914.359.227.961.426 1.804.598.844.164 1.555.351 2.132.562 1.79.657 2.68 1.793 2.68 3.41 0 1.157-.49 2.094-1.48 2.813-1 .711-2.277 1.066-3.847 1.066-1.063 0-2.008-.187-2.836-.562-.821-.383-1.465-.902-1.934-1.559-.469-.664-.703-1.379-.703-2.144h3.211c.031.601.254 1.062.668 1.383.414.32.969.48 1.664.48.648 0 1.137-.121 1.465-.363.336-.25.504-.575.504-.973zm10.758 1.008c.62 0 1.13-.172 1.52-.516.39-.344.6-.8.61-1.37h3.18c-.01.859-.24 1.648-.71 2.366a4.686 4.686 0 01-1.89 1.664c-.8.391-1.68.586-2.65.586-1.81 0-3.24-.574-4.29-1.722-1.05-1.156-1.57-2.75-1.57-4.781v-.223c0-1.953.52-3.512 1.56-4.676 1.04-1.164 2.46-1.746 4.27-1.746 1.59 0 2.86.453 3.81 1.36.96.898 1.45 2.097 1.47 3.597h-3.18c-.01-.656-.22-1.188-.61-1.594-.39-.414-.9-.62-1.54-.62-.79 0-1.39.288-1.8.866-.4.57-.59 1.5-.59 2.79v.35c0 1.306.19 2.243.59 2.813.4.57 1.01.856 1.82.856zm14.37-7.008a9.227 9.227 0 00-1.22-.094c-1.28 0-2.12.434-2.52 1.301V102h-3.39V89.32h3.2l.09 1.512c.68-1.164 1.63-1.746 2.83-1.746.37 0 .73.05 1.05.152l-.04 3.258zm5.21 9.504h-3.4V89.32h3.4V102zm-3.6-15.96c0-.509.17-.927.51-1.255.34-.328.81-.492 1.39-.492.58 0 1.04.164 1.39.492.34.328.51.746.51 1.254 0 .516-.18.938-.53 1.266-.34.328-.8.492-1.37.492-.57 0-1.03-.164-1.38-.492-.34-.328-.52-.75-.52-1.266zm17.83 9.737c0 2.032-.44 3.617-1.3 4.758-.87 1.133-2.08 1.699-3.64 1.699-1.37 0-2.47-.527-3.29-1.582l-.15 1.348h-3.05V84h3.39v6.457c.78-.914 1.81-1.371 3.08-1.371 1.55 0 2.76.57 3.63 1.71.89 1.134 1.33 2.731 1.33 4.794v.187zm-3.39-.246c0-1.281-.2-2.215-.61-2.8-.4-.594-1.01-.891-1.81-.891-1.08 0-1.82.441-2.23 1.324v5.004c.41.89 1.16 1.336 2.25 1.336s1.81-.54 2.16-1.617c.16-.516.24-1.301.24-2.356zm11.32 6.703c-1.86 0-3.37-.57-4.55-1.711-1.16-1.14-1.74-2.66-1.74-4.558v-.328c0-1.274.24-2.41.74-3.41.49-1.008 1.18-1.782 2.08-2.32.91-.548 1.94-.821 3.1-.821 1.73 0 3.09.547 4.09 1.64 1 1.094 1.5 2.645 1.5 4.653v1.383h-8.08c.11.828.44 1.492.99 1.992s1.25.75 2.09.75c1.31 0 2.33-.473 3.06-1.418l1.67 1.863c-.51.719-1.2 1.281-2.07 1.688-.86.398-1.82.597-2.88.597zm-.38-10.406c-.68 0-1.22.227-1.65.68-.41.453-.68 1.101-.79 1.945h4.71v-.27c-.02-.75-.22-1.328-.61-1.734-.39-.414-.95-.62-1.66-.62zm-82.763 21.11l4.383 12.374 4.359-12.374h4.618V130h-3.528v-4.664l.352-8.051L974.695 130h-2.414l-4.593-12.703.351 8.039V130h-3.516v-17.062h4.594zm22.043 17.296c-1.859 0-3.375-.57-4.547-1.711-1.164-1.14-1.746-2.66-1.746-4.558v-.328c0-1.274.246-2.41.738-3.41.493-1.008 1.188-1.782 2.086-2.321.907-.547 1.938-.82 3.094-.82 1.735 0 3.098.547 4.09 1.641 1 1.093 1.5 2.644 1.5 4.652v1.383h-8.074c.109.828.437 1.492.984 1.992.555.5 1.254.75 2.098.75 1.305 0 2.324-.473 3.058-1.418l1.664 1.863c-.507.719-1.195 1.281-2.062 1.688-.867.398-1.828.597-2.883.597zm-.387-10.406c-.671 0-1.218.227-1.64.68-.414.453-.68 1.101-.797 1.945h4.711v-.269c-.016-.75-.219-1.329-.609-1.735-.391-.414-.946-.621-1.665-.621zm11.587-5.625v3.117h2.17v2.485h-2.17v6.328c0 .469.09.805.27 1.008.18.203.53.304 1.03.304.38 0 .71-.027 1-.082v2.567c-.66.203-1.35.304-2.05.304-2.38 0-3.587-1.199-3.633-3.597v-6.832h-1.852v-2.485h1.852v-3.117h3.383zM1013.77 130c-.16-.305-.27-.684-.34-1.137-.82.914-1.89 1.371-3.2 1.371-1.25 0-2.28-.359-3.1-1.078-.81-.718-1.22-1.625-1.22-2.718 0-1.344.5-2.376 1.49-3.094 1-.719 2.44-1.082 4.33-1.09h1.56v-.727c0-.586-.16-1.054-.46-1.406-.3-.351-.77-.527-1.42-.527-.57 0-1.02.136-1.35.41-.32.273-.48.648-.48 1.125h-3.38c0-.734.22-1.414.68-2.039.45-.625 1.09-1.113 1.92-1.465.82-.359 1.75-.539 2.79-.539 1.56 0 2.8.394 3.71 1.184.92.781 1.38 1.882 1.38 3.304v5.496c.01 1.203.18 2.114.51 2.731V130h-3.42zm-2.81-2.355c.5 0 .97-.11 1.39-.329.42-.226.73-.527.94-.902v-2.18h-1.27c-1.7 0-2.6.586-2.71 1.758l-.01.199c0 .422.15.77.45 1.043.29.274.7.411 1.21.411zm7.8-4.079c0-1.976.44-3.55 1.32-4.722.89-1.172 2.11-1.758 3.65-1.758 1.23 0 2.25.461 3.06 1.383V112h3.39v18h-3.06l-.16-1.348c-.84 1.055-1.93 1.582-3.26 1.582-1.49 0-2.69-.586-3.59-1.757-.9-1.18-1.35-2.817-1.35-4.911zm3.38.246c0 1.188.21 2.098.63 2.731.41.633 1.01.949 1.8.949 1.05 0 1.79-.441 2.22-1.324v-5.004c-.43-.883-1.16-1.324-2.2-1.324-1.63 0-2.45 1.324-2.45 3.972zm18.02 6.188c-.16-.305-.27-.684-.34-1.137-.82.914-1.89 1.371-3.2 1.371-1.24 0-2.28-.359-3.1-1.078-.81-.718-1.22-1.625-1.22-2.718 0-1.344.5-2.376 1.49-3.094 1-.719 2.44-1.082 4.33-1.09h1.56v-.727c0-.586-.16-1.054-.46-1.406-.3-.351-.77-.527-1.42-.527-.57 0-1.02.136-1.35.41-.32.273-.48.648-.48 1.125h-3.38c0-.734.22-1.414.68-2.039.45-.625 1.09-1.113 1.92-1.465.83-.359 1.76-.539 2.79-.539 1.56 0 2.8.394 3.71 1.184.92.781 1.38 1.882 1.38 3.304v5.496c.01 1.203.18 2.114.51 2.731V130h-3.42zm-2.8-2.355c.5 0 .96-.11 1.38-.329.42-.226.73-.527.94-.902v-2.18h-1.27c-1.7 0-2.6.586-2.71 1.758l-.01.199c0 .422.15.77.45 1.043.29.274.7.411 1.22.411zm12.37-13.442v3.117h2.17v2.485h-2.17v6.328c0 .469.09.805.27 1.008.18.203.52.304 1.03.304.38 0 .71-.027 1-.082v2.567c-.67.203-1.35.304-2.05.304-2.38 0-3.59-1.199-3.64-3.597v-6.832h-1.85v-2.485h1.85v-3.117h3.39zm11.4 15.797a3.944 3.944 0 01-.34-1.137c-.82.914-1.88 1.371-3.2 1.371-1.24 0-2.27-.359-3.09-1.078-.81-.718-1.22-1.625-1.22-2.718 0-1.344.5-2.376 1.49-3.094 1-.719 2.44-1.082 4.32-1.09h1.56v-.727c0-.586-.15-1.054-.45-1.406-.3-.351-.77-.527-1.42-.527-.57 0-1.02.136-1.35.41-.32.273-.48.648-.48 1.125h-3.39c0-.734.23-1.414.68-2.039.46-.625 1.1-1.113 1.92-1.465.83-.359 1.76-.539 2.79-.539 1.57 0 2.8.394 3.72 1.184.92.781 1.38 1.882 1.38 3.304v5.496c.01 1.203.18 2.114.5 2.731V130h-3.42zm-2.8-2.355c.5 0 .96-.11 1.38-.329.43-.226.74-.527.94-.902v-2.18h-1.26c-1.7 0-2.6.586-2.71 1.758l-.01.199c0 .422.15.77.44 1.043.3.274.71.411 1.22.411z" fill="#000"/><circle cx="1017" cy="47" r="23" fill="#4D5858"/><path d="M1021.29 48.578h1.93v2.73h-1.93V55h-3.39v-3.691h-6.99l-.16-2.133 7.12-11.239h3.42v10.641zm-7.16 0h3.77v-6.023l-.22.386-3.55 5.637z" fill="#fff"/><path d="M1267.05 95.988V102h-3.51V84.937h6.65c1.28 0 2.41.235 3.38.704.97.468 1.72 1.136 2.25 2.003.52.86.78 1.84.78 2.942 0 1.672-.57 2.992-1.72 3.96-1.14.962-2.72 1.442-4.75 1.442h-3.08zm0-2.847h3.14c.93 0 1.64-.22 2.12-.657.49-.437.74-1.062.74-1.875 0-.836-.25-1.511-.74-2.027-.49-.516-1.17-.781-2.04-.797h-3.22v5.356zm19.35 7.57c-.84 1.016-1.99 1.523-3.47 1.523-1.36 0-2.4-.39-3.12-1.172-.71-.781-1.07-1.925-1.09-3.433V89.32h3.39v8.192c0 1.32.6 1.98 1.8 1.98 1.15 0 1.94-.398 2.37-1.195V89.32h3.4V102h-3.19l-.09-1.289zm17.26-4.934c0 2.032-.43 3.617-1.3 4.758-.87 1.133-2.08 1.699-3.63 1.699-1.38 0-2.48-.527-3.3-1.582l-.15 1.348h-3.05V84h3.39v6.457c.78-.914 1.81-1.371 3.08-1.371 1.55 0 2.76.57 3.64 1.71.88 1.134 1.32 2.731 1.32 4.794v.187zm-3.39-.246c0-1.281-.2-2.215-.61-2.8-.4-.594-1.01-.891-1.81-.891-1.08 0-1.82.441-2.23 1.324v5.004c.42.89 1.17 1.336 2.25 1.336 1.09 0 1.81-.54 2.16-1.617.16-.516.24-1.301.24-2.356zm9.06 6.469h-3.4V84h3.4v18zm6.38 0h-3.4V89.32h3.4V102zm-3.6-15.96c0-.509.17-.927.5-1.255.35-.328.81-.492 1.4-.492.58 0 1.04.164 1.38.492.34.328.52.746.52 1.254 0 .516-.18.938-.53 1.266-.34.328-.8.492-1.37.492-.57 0-1.03-.164-1.39-.492-.34-.328-.51-.75-.51-1.266zm13.27 12.456c0-.414-.21-.738-.63-.973-.4-.242-1.06-.457-1.96-.644-3.02-.633-4.53-1.914-4.53-3.844 0-1.125.47-2.062 1.4-2.812.93-.758 2.16-1.137 3.66-1.137 1.61 0 2.9.379 3.86 1.137.97.758 1.45 1.742 1.45 2.953h-3.38c0-.485-.16-.883-.47-1.195-.32-.32-.8-.481-1.47-.481-.57 0-1.01.129-1.32.387a1.23 1.23 0 00-.47.984c0 .375.18.68.53.914.36.227.96.426 1.8.598.85.164 1.56.351 2.13.562 1.79.657 2.69 1.793 2.69 3.41 0 1.157-.5 2.094-1.49 2.813-.99.711-2.27 1.066-3.84 1.066-1.07 0-2.01-.187-2.84-.562-.82-.383-1.46-.902-1.93-1.559-.47-.664-.71-1.379-.71-2.144h3.21c.04.601.26 1.062.67 1.383.42.32.97.48 1.67.48.64 0 1.13-.121 1.46-.363.34-.25.51-.575.51-.973zm8.78-7.793c.9-1.078 2.03-1.617 3.39-1.617 2.75 0 4.15 1.598 4.18 4.793V102h-3.38v-8.027c0-.727-.16-1.262-.47-1.606-.31-.351-.83-.527-1.56-.527-.99 0-1.71.383-2.16 1.148V102h-3.38V84h3.38v6.703z" fill="#000"/><circle cx="1303" cy="47" r="23" fill="#4D5858"/><path d="M1297.77 46.61l.99-8.672h9.56v2.824h-6.78l-.43 3.668c.81-.43 1.66-.645 2.57-.645 1.62 0 2.9.504 3.82 1.512.92 1.008 1.38 2.418 1.38 4.23 0 1.102-.23 2.09-.7 2.965a4.962 4.962 0 01-1.99 2.028c-.87.476-1.89.714-3.07.714-1.03 0-1.99-.207-2.87-.62-.89-.423-1.59-1.012-2.1-1.77s-.78-1.621-.81-2.59h3.35c.07.71.32 1.266.74 1.664.43.39.99.586 1.68.586.76 0 1.35-.273 1.77-.82.41-.555.62-1.336.62-2.344 0-.969-.24-1.711-.72-2.227-.48-.515-1.15-.773-2.03-.773-.8 0-1.45.21-1.95.633l-.33.304-2.7-.668z" fill="#fff"/></svg>